<?xml version="1.0" encoding="utf-8"?>
<!-- Generator: Adobe Illustrator 16.0.0, SVG Export Plug-In . SVG Version: 6.00 Build 0)  -->
<!DOCTYPE svg PUBLIC "-//W3C//DTD SVG 1.1//EN" "http://www.w3.org/Graphics/SVG/1.1/DTD/svg11.dtd">
<svg version="1.1" id="Layer_1" xmlns="http://www.w3.org/2000/svg" xmlns:xlink="http://www.w3.org/1999/xlink" x="0px" y="0px"
	 width="2069.961px" height="410.822px" viewBox="0 0 2069.961 410.822" enable-background="new 0 0 2069.961 410.822"
	 xml:space="preserve">
<g>
	<path fill-rule="evenodd" clip-rule="evenodd" d="M724.039,342.03c-11.027-2.257-22.057-4.514-33.014-6.756
		c0-7.06-0.471-14.54,0.084-21.943c2.059-27.544,3.369-55.208,7.02-82.552c3.865-28.95,9.859-57.629,15.373-86.341
		c2.092-10.903,5.291-21.605,8.25-32.328c2.855-10.354,9.328-17.963,18.961-22.634c10.164-4.931,20.619-9.273,30.699-14.363
		c6.023-3.042,12.006-6.494,17.215-10.733c5.539-4.508,11.33-5.483,17.701-3.684c6.223,1.758,12.344,3.968,18.344,6.387
		c6.678,2.693,12.65,1.78,18.314-2.393c3.016-2.223,6.035-4.44,9.053-6.66c2.668,0,5.334,0,8,0
		c15.477,11.271,31.262,21.82,49.859,27.655c12.389,3.888,20.75,12.815,24.104,25.371c6.938,25.983,15.023,51.826,19.523,78.257
		c6.914,40.613,11.205,81.674,16.611,122.545c0.502,3.795,0.926,7.604,1.553,11.379c0.479,2.878-0.246,4.606-3.256,5.642
		c-9.994,3.438-20.16,5.586-30.783,5.605c-3.188,0.006-4.279-1.05-4.615-4.208c-4.818-45.209-13.791-89.73-22.432-134.306
		c-0.898-4.635-1.826-9.265-3.379-13.818c-8.812,48.222,2.127,95.489,7.104,143.91c-12.705,3.365-25.127,6.854-37.654,9.907
		c-9.475,2.309-19.084,4.061-28.635,6.061c-19,0-38,0-57,0c-1.982-0.673-3.967-1.345-5.951-2.021
		c-10.664-3.63-21.367-7.158-31.945-11.025c-1.273-0.466-2.846-2.921-2.645-4.194c3.562-22.484,4.035-45.069,2.67-67.732
		c-0.916-15.21-1.889-30.416-2.838-45.623c-1.492,0.864-2.07,1.823-2.305,2.86c-4.215,18.629-9.332,37.117-12.332,55.943
		c-3.791,23.786-5.848,47.849-8.654,71.792C726.039,342.03,725.039,342.03,724.039,342.03z M723.443,330.501
		c-0.111-19.826,2.945-38.979,7.152-58.022c5.84-26.434,11.812-52.854,16.762-79.461c2.648-14.24,1.404-28.528-6.207-41.62
		c-2.246-3.862-4.092-8.023-5.592-12.235c-1.869-5.243-3.238-10.679-1.205-17.096c0.793,1.574,1.254,2.429,1.664,3.308
		c13.963,29.913,19.627,61.789,20.924,94.395c1.225,30.784,1.121,61.623,1.393,92.439c0.033,3.728,1.17,5.645,4.574,7.11
		c13.775,5.933,28.166,8.947,43.074,9.688c19.379,0.963,38.619-0.536,57.652-4.107c14.492-2.72,28.871-6.044,43.508-9.144
		c-0.266-1.871-0.441-2.987-0.578-4.107c-2.521-20.462-5.928-40.862-7.367-61.4c-2.875-41.092,2.527-81.785,8.025-122.396
		c0.83-6.137,2.236-12.367,9.334-17.168c-3.047,19.338-5.957,37.374-8.623,55.445c-0.23,1.561,0.703,3.765,1.84,4.968
		c3.656,3.871,5.889,8.041,6.693,13.516c2.027,13.809,4.818,27.503,7.197,41.261c3.543,20.474,7.221,40.927,10.389,61.459
		c1.59,10.311,2.176,20.775,3.355,32.549c9.334-2.441,18.299-4.786,26.887-7.032c-2.637-20.601-5.027-41.063-7.926-61.454
		c-3.602-25.347-7.383-50.673-11.545-75.934c-3.322-20.168-6.871-40.334-14.762-59.399c-5.193-12.552-12.799-23.031-25.475-28.852
		c-11.73-5.387-23.641-10.386-35.57-15.599c0.035-0.048-0.271,0.183-0.328,0.463c-0.225,1.142-0.383,2.298-0.547,3.45
		c-1.559,10.832-7.195,18.805-16.883,23.851c-18.807,9.796-47.812,4.174-61.322-12.172c-3.086-3.733-5.08-8.371-7.445-12.372
		c-3.775,2.163-7.514,4.718-11.578,6.547c-7.727,3.475-15.689,6.42-23.465,9.792c-13.029,5.652-20.99,15.362-23.346,29.548
		c-4.303,25.906-8.906,51.764-13.002,77.702c-4.15,26.273-8.256,52.568-11.564,78.956c-1.838,14.655-2.008,29.519-2.889,43.627
		C705.977,324.31,714.375,327.288,723.443,330.501z M799.314,64.246c-0.043,0.673-0.227,1.329-0.102,1.92
		c3.613,17.075,23.422,29.434,40.314,25.162c0.625-0.158,1.4-0.339,1.771-0.785c5.588-6.715,10.266-13.82,9.77-23.238
		C829.178,71.674,827.229,71.557,799.314,64.246z M757.791,326.174c49.752,20.969,98.588,15.233,146.93-4.854
		c-2.385-0.577-4.746-0.368-7.051,0.116c-15.777,3.311-31.5,6.903-47.324,9.971c-17.861,3.464-35.947,6.047-54.031,2.582
		c-7.701-1.476-14.955-5.313-22.391-8.139C768.547,323.807,763.186,322.695,757.791,326.174z M794.639,78.691
		c-0.346,0.331-0.689,0.662-1.035,0.994c1.895,2.829,3.463,5.961,5.742,8.438c12.043,13.094,37.781,15.952,52.527,6.02
		c9.129-6.149,12.992-17.412,9.244-28.636c-1.23,2.353-2.357,4.106-3.098,6.011c-1.322,3.398-2.293,6.934-3.617,10.331
		c-4.113,10.547-13.801,16.884-24.832,14.559c-7.625-1.607-14.984-5.065-22.051-8.534C802.85,85.581,798.908,81.803,794.639,78.691z
		 M938.137,327.545c10.588,4.146,19.375-0.912,29.514-1.991c-1.246-3.224-2.297-5.94-3.584-9.271
		C955.936,321.996,944.877,317.813,938.137,327.545z M698.635,327.288c-0.215,0.809-0.43,1.616-0.645,2.425
		c4.051,1.084,8.102,2.169,12.152,3.253c0.156-0.617,0.312-1.234,0.469-1.853C706.619,329.838,702.627,328.563,698.635,327.288z"/>
	<path fill-rule="evenodd" clip-rule="evenodd" d="M214.04,58.03c5.25,1.665,10.402,3.799,15.767,4.913
		c21.797,4.528,43.725,8.438,65.471,13.188c12.893,2.815,24.959,8.106,36.032,15.446c7.33,4.859,8.547,7.041,6.015,15.612
		c-3.382,11.446-7.281,22.753-11.325,33.986c-2.754,7.651-6.309,15.012-9.147,22.635c-1.025,2.753-2.484,3.527-5.127,3.266
		c-7.437-0.736-14.876-1.446-22.324-2.046c-2.462-0.199-4.954-0.031-8.103-0.031c-5.759,56.553,0.507,112.518,3.775,168.69
		c-1.021,0.161-1.646,0.327-2.277,0.351c-18.132,0.675-36.276,1.105-54.393,2.068c-15.281,0.812-30.543,2.085-45.791,3.426
		c-29.886,2.627-59.505,1.702-88.783-5.538c-4.397-1.087-6.181-2.64-5.964-7.597c1.303-29.772,2.824-59.558,3.039-89.348
		c0.15-20.756-1.748-41.524-2.556-62.294c-0.162-4.156-2.407-4.979-5.457-3.848c-2.646,0.982-5.094,2.762-7.295,4.59
		c-1.484,1.233-2.224,3.32-3.583,4.754c-4.288,4.519-8.244,4.449-12.591,0.118c-15.698-15.642-28.252-33.158-33.255-55.239
		c-0.169-0.748-0.743-1.403-1.128-2.103c0-1.667,0-3.333,0-5c5.163-5.686,10.948-10.54,18.461-12.747
		c14.069-4.133,26.025-11.854,36.194-22.127c16.211-16.376,36.328-21.834,58.472-22.113c13.3-0.168,26.614,0.201,39.901-0.264
		c6.681-0.233,13.316-1.79,19.972-2.749C203.373,58.03,208.706,58.03,214.04,58.03z M104.856,240.758
		c-7.751-1.032-7.602-1.027-7.828,6.129c-0.527,16.647-1.149,33.293-1.864,49.934c-0.34,7.926-0.981,15.838-1.523,24.332
		c61.805,3.346,122.693-3.222,183.477-7.641c-1.066-14.605-2.553-28.491-3-42.409c-0.983-30.629-1.312-61.278-2.189-91.912
		c-0.279-9.721-0.356-19.562-6.749-28.062c-2.199-2.924-3.06-6.979-4.083-10.642c-4.583-16.409-4.382-33.254-4.264-50.078
		c0.036-5.088-0.679-10.296,2.657-14.854c0.535-0.73,0.237-2.071,0.358-3.539c-13.101,3.408-24.937-1.882-37.025-3.551
		c-7.44,22.1-24.241,34.981-44.669,34.372c-7.144-0.213-13.768-2.272-19.502-6.713c-9.668-7.486-12.686-18.225-14.057-29.909
		c-1.988,0-3.631-0.06-5.268,0.01c-19.146,0.807-36.41,7-52.098,17.946c-16.451,11.479-31.159,25.565-49.866,33.105
		c4.162,6.152,8.279,11.948,12.082,17.943c3.738,5.894,6.788,12.255,10.836,17.913c3.174,4.437,7.41,8.112,11.92,12.92
		c0.625-3.827,0.974-5.962,1.396-8.551c1.564,0.812,2.484,1.162,3.259,1.715c3.388,2.412,6.56,5.182,10.133,7.269
		c7.156,4.182,12.207,2.279,15.145-5.409c4.14-10.834,4.833-22.137,3.375-33.448c-1.886-14.633-4.476-29.176-6.715-43.452
		c-0.123-0.094,0.179,0.036,0.324,0.266c0.352,0.556,0.689,1.135,0.931,1.744c7.247,18.334,11.269,37.276,9.921,57.058
		c-0.792,11.628-3.878,22.587-11.483,31.895c-1.183,1.447-2.102,3.59-2.126,5.424c-0.122,9.102-0.897,18.357,0.451,27.272
		C98.466,218.774,101.997,229.427,104.856,240.758z M265.034,73.106c-0.605,0.547-1.211,1.094-1.816,1.64
		c0,15.753-0.849,31.568,0.293,47.238c0.785,10.778,4.235,21.379,6.766,31.994c0.321,1.347,2.176,3.12,3.509,3.3
		c7.058,0.949,14.188,1.345,21.267,2.165c2.624,0.305,3.835-0.563,4.825-2.957c3.678-8.892,7.823-17.596,11.33-26.551
		c4.046-10.33,7.606-20.851,11.369-31.292c0.813-2.258,0.797-4.015-1.924-5.206c-11.246-4.925-22.24-10.48-33.681-14.882
		C279.993,75.871,272.368,74.866,265.034,73.106z M93.973,325.179c4.651,5.693,10.417,7.644,16.397,8.753
		c19.942,3.7,40.117,3.818,60.25,2.663c19.773-1.135,39.492-3.188,59.243-4.726c13.277-1.033,26.58-1.752,39.846-2.899
		c2.665-0.23,5.216-1.762,7.82-2.693c-0.108-0.533-0.216-1.065-0.324-1.598c-1.753-0.209-3.512-0.642-5.258-0.593
		c-27.611,0.782-55.218,1.8-82.833,2.402c-23.464,0.511-46.939,0.748-70.409,0.707C110.789,327.182,102.875,325.943,93.973,325.179z
		 M201.832,62.71c-14.737,2.233-29.068,6.163-43.539,0.099c-1.075,9.246,2.033,16.033,9.552,20.288
		c8.458,4.786,17.239,4.749,25.481-0.584C200.247,78.035,202.491,71.222,201.832,62.71z M32.841,124.429
		c4.749,21.68,14.42,39.159,32.565,52.278C67.147,164.852,47.323,133.462,32.841,124.429z M304.938,158.154
		c0.615,0.181,1.23,0.361,1.845,0.542c11.521-7.328,26.468-46.744,21.801-57.462c-6.2,12.845-12.712,25.551-18.457,38.596
		C307.594,145.583,306.621,152.025,304.938,158.154z"/>
	<path fill-rule="evenodd" clip-rule="evenodd" d="M1440.041,342.03c-6.137-1.327-12.551-1.935-18.338-4.168
		c-6.877-2.653-13.434-6.36-19.66-10.343c-2.082-1.332-3.764-4.876-3.859-7.474c-0.654-17.952-0.848-35.923-1.174-53.888
		c-0.041-2.241-0.006-4.483-0.535-6.772c-4.129,3.885-5.053,8.85-5.318,13.892c-0.291,5.48,0.4,11.046-0.246,16.466
		c-0.717,6.009-2.475,11.893-3.754,17.837c-0.688,3.196-1.322,6.403-1.975,9.607c-0.186,0.908-0.25,1.855-0.545,2.726
		c-0.99,2.924-2.465,5.746-3.018,8.743c-1.508,8.168-1.365,8.368-9.908,8.023c-4.797-0.193-9.561-1.144-14.352-1.613
		c-3.602-0.354-4.492-2.255-4.396-5.692c0.242-8.638,1.033-17.422-0.184-25.891c-1.117-7.788,0.299-14.716,1.781-22.172
		c2.357-11.854,3.23-24.027,4.312-36.104c0.809-9.044,2.047-17.822,7.199-25.612c2.959-4.473,3.402-9.408,3.283-14.771
		c-0.123-5.539,0.918-11.178,2.045-16.65c1.332-6.478,3.4-12.801,4.965-19.235c1.137-4.68,11.615-14.696,16.223-16.106
		c4.4-1.347,8.58-3.479,12.756-5.476c1.932-0.924,3.666-2.289,5.414-3.56c4.699-3.418,9.357-6.894,14.416-10.631
		c-1.818-4.086-3.473-8.219-5.465-12.183c-4.006-7.973-4.73-16.001-1.938-24.604c3.266-10.062,7.076-19.876,14.359-27.636
		c3.953-4.213,9.23-7.184,13.91-10.715c3.666,0,7.332,0,11,0c15.504,8.118,25.861,20.78,31.203,37.198
		c4.539,13.958,1.791,26.455-7.746,39.216c4.869,2.605,9.396,5.582,14.332,7.52c5.545,2.175,11.467,3.38,17.207,5.063
		c8.021,2.354,13.742,7.123,16.371,15.329c2.23,6.959,4.814,13.803,7.053,20.759c4.324,13.44,8.445,26.946,12.787,40.381
		c2.209,6.831,4.375,13.526,3.131,20.962c-0.391,2.342,0.535,5.541,2.021,7.436c3.791,4.835,4.438,10.25,4.463,15.985
		c0.039,9.819-0.219,19.655,0.283,29.452c0.268,5.232,1.873,10.395,2.84,15.596c0.119,0.645,0.242,1.441-0.02,1.979
		c-2.73,5.591-3.922,11.488-3.975,17.689c-0.006,0.64-1.219,1.717-1.984,1.83c-6.043,0.891-12.102,2.075-18.18,2.216
		c-5.34,0.124-8.404-3.129-8.754-8.749c-0.59-9.467-1.525-18.914-2.014-28.384c-0.561-10.88-1.303-21.629-8.061-30.886
		c-0.588-0.807-0.863-2.253-0.594-3.21c2.145-7.653-1.508-14.246-4.098-21.247c-0.328,1.644-0.91,3.282-0.947,4.933
		c-0.332,14.466-1.299,28.957,3.291,43.093c2.154,6.632,4.045,13.249-1.381,19.825c-1.504,1.823-0.508,6.047-0.061,9.082
		c1.135,7.704,1.018,8.852-6.521,10.658c-14.518,3.479-29.193,6.293-43.801,9.389c-1.287,0.272-2.566,0.589-3.848,0.885
		C1453.373,342.03,1446.707,342.03,1440.041,342.03z M1380.924,318.279c-0.191-0.627-0.383-1.253-0.574-1.88
		c0.91-3.257,1.893-6.495,2.711-9.774c1.143-4.579,3.293-9.258,3.021-13.773c-0.762-12.67,0.875-24.825,4.531-36.918
		c3.428-11.343,7.494-22.695,5.344-35.221c1.955,2.661,3.885,5.511,4.031,8.45c0.74,14.785,1.328,29.594,1.344,44.396
		c0.012,10.977-1.074,21.952-1.334,32.937c-0.055,2.29,1.371,4.615,2.115,6.925c0.527-0.165,1.055-0.331,1.582-0.496
		c0-5.217,0-10.434,0-15.728c12.463-1.824,17.416-10.712,20.289-21.396c1.363-5.072,2.283-10.265,3.422-15.48
		c19.113,3.826,37.793-3.898,56.598-0.036c0.203,17.412,8.129,29.811,22.508,38.494c1.189,0.718,1.857,3.053,1.943,4.678
		c0.164,3.179-0.256,6.387-0.494,10.661c3.1-2.41,6.027-2.629,5.334-6.831c-4.842-29.352-5.83-58.945-5.023-88.632
		c0.027-1.017-0.309-2.042-0.479-3.086c-2.41,1.408-4.436,2.591-6.459,3.773c-0.332-0.397-0.664-0.794-0.998-1.191
		c14.332-16.905,13.779-38.053,17.303-56.403c-7.734-5.088-14.465-9.524-21.205-13.946c-5.133-3.367-10.217-6.813-15.467-9.983
		c-0.975-0.589-3.127-0.587-3.904,0.092c-3.498,3.053-6.709,6.435-9.994,9.725c-2.428,2.43-3.543,4.842-1.213,8.252
		c1.107,1.621,1.49,4.215,1.199,6.223c-0.879,6.059-1.99,12.111-3.494,18.044c-1.893,7.471-2.488,14.601,1.297,21.8
		c1.084,2.062,0.404,5.051,0.533,7.614c-0.67,0.068-1.338,0.136-2.008,0.204c-1.111-2.907-3.039-5.776-3.178-8.729
		c-0.344-7.398-0.217-14.861,0.357-22.248c0.588-7.561,1.936-15.062,3.066-23.459c-4.217,1.057-7.221,2.286-10.281,2.445
		c-3.168,0.165-6.391-0.707-10.137-1.197c-0.375,2.599-1.365,5.42-1.053,8.089c0.811,6.899,2.23,13.726,3.336,20.593
		c0.658,4.078,1.182,8.179,1.766,12.269c-0.611,0.072-1.221,0.144-1.832,0.216c-4.902-13.676-9.502-27.379-5.76-42.38
		c0.438-1.754,0.732-4.204-0.141-5.498c-2.404-3.56-5.377-6.757-8.291-9.944c-2.918-3.194-5.744-3.414-9.359-0.332
		c-8.391,7.153-17.447,13.314-28.24,16.522c-1.092,0.324-2.273,2.565-2.279,3.922c-0.018,5.32,0.631,10.642,0.645,15.964
		c0.033,12.082,2.883,23.373,8.906,33.847c2.268,3.944,4.619,7.841,7.135,12.104c-16.566-5.311-29.141-27.761-25.064-45.599
		c1.59,6.93,2.76,12.891,4.34,18.741c2.525,9.347,4.973,12.846,7.941,13.802c-2.975-15.547-6.082-31.793-9.436-49.33
		c-9.221,15.339-13.969,30.406-13.736,47.04c0.045,3.281-1.143,6.674-2.236,9.853c-1.324,3.856-3.959,7.407-4.6,11.324
		c-1.527,9.341-2.328,18.809-3.127,28.25c-0.121,1.431,1.336,2.995,2.275,4.937c-8.029,9.036-3.117,22.351-9.119,32.749
		c4.203,1.155,4.449,1.522,3.631,5.665c-0.896,4.554-2.115,9.058-2.77,13.644c-0.523,3.666,1.279,6.471,5.172,6.419
		C1367.855,319.359,1374.389,318.698,1380.924,318.279z M1406.041,299.236c0,4.966,0.318,9.816-0.1,14.603
		c-0.34,3.888,1.455,5.189,4.73,6.153c17.904,5.272,36.227,7.631,54.777,6.405c10.535-0.695,21.064-2.755,31.371-5.163
		c7.756-1.812,7.553-2.491,7.299-10.269c-0.119-3.596-0.021-7.198-0.021-11.153c-17.166-6.659-21.586-22.258-24.432-38.964
		c-17.02,1.28-33.527,2.521-50.475,3.796C1427.566,279.45,1423.906,293.968,1406.041,299.236z M1547.357,268.547
		c-0.264-0.371-0.525-0.741-0.789-1.111c0.916-0.63,1.852-1.233,2.746-1.893c5.703-4.205,5.588-4.381,1.082-9.928
		c-1.465-1.803-2.393-4.297-2.834-6.614c-0.619-3.247-0.385-6.646-0.809-9.943c-3.424-26.702-15.375-50.676-24.414-75.737
		c-2.188,17.075-9.824,33.074-9.229,50.586c7.127-9.497,8.139-20.694,9.156-31.958c0.449,0.259,0.834,0.35,0.969,0.584
		c0.33,0.564,0.615,1.176,0.791,1.804c2.982,10.652-1.141,19.846-6.994,28.027c-3.816,5.338-5.479,9.753-2.469,15.974
		c1.684,3.481,1.625,7.771,2.646,11.619c1.389,5.237,0.941,11.583,7.885,13.768c0.66,0.207,0.875,1.822,1.297,2.783
		c-1.068,0.41-2.109,1.012-3.213,1.167c-0.836,0.117-1.75-0.334-2.615-0.528c-1.404,11.204,8.209,6.126,13.348,8.89
		c-3.115,3.375-5.736,6.216-8.32,9.018c0.824,5.152,2.102,10.662,2.504,16.236c0.6,8.294,0.697,16.632,0.766,24.953
		c0.027,3.286,1.344,4.5,4.475,4.242c6.461-0.533,12.92-1.115,19.393-1.469c3.355-0.184,4.723-1.619,4.395-4.964
		c-1.518-15.469-2.977-30.944-4.504-46.92C1549.965,267.846,1548.66,268.197,1547.357,268.547z M1453.617,155.901
		c6.631-10.172,13.172-19.389,18.838-29.114c6.816-11.701,9.146-24.16,3.416-37.196c-1.035-2.351-1.289-5.412-2.971-7.049
		c-7.74-7.535-22.201-8.831-32.176-3.343c-9.768,5.373-15.188,16.688-13.354,27.874
		C1430.486,126.077,1442.387,140.258,1453.617,155.901z M1401.365,319.032c2.695,6.915,6.527,10.982,11.637,13.046
		c6.396,2.585,13.113,4.996,19.902,5.883c24.49,3.199,48.34-1.229,71.928-7.449c6.002-1.583,7.809-6.776,4.791-12.071
		c-2.521,1.223-4.896,2.771-7.5,3.574c-24.881,7.674-50.322,8.756-75.986,5.693c-6.838-0.815-13.883-1.871-19.26-7.212
		C1405.963,319.585,1404.035,319.694,1401.365,319.032z M1431.383,79.297c15.395-9.727,29.439-5.195,43.76,0.143
		c-2.814-4.096-5.754-7.987-9.086-11.504c-5.133-5.418-11.24-9.425-19-6.772C1438.967,63.928,1435.01,70.799,1431.383,79.297z
		 M1377.738,334.194c0.172-3.551,0.293-6.323,0.443-9.095c0.186-3.423-1.453-4.078-4.625-3.688
		c-4.238,0.521-8.564,0.732-12.826,0.524c-4.619-0.226-3.588,3.517-4.396,5.762c-0.863,2.396-0.369,4.631,2.918,4.905
		C1365.162,333.098,1371.068,333.619,1377.738,334.194z M1533.295,334.427c4.359,0,8.822,0.577,13.076-0.123
		c8.293-1.364,8.654-2.292,6.836-10.898c-6.627,0.489-13.307,0.982-19.912,1.47C1533.295,328.065,1533.295,330.858,1533.295,334.427
		z M1434.459,138.684c-4.303-12.312-8.881-25.413-13.271-37.979C1416.934,112.002,1424.266,132.295,1434.459,138.684z
		 M1483.316,99.614c1.078,14.924-6.613,25.979-10.904,38.097C1481.873,130.04,1490.869,110.39,1483.316,99.614z M1516.92,157.559
		c-1.512-5.313-4.479-6.977-10.666-6.117C1509.809,153.481,1513.365,155.52,1516.92,157.559z"/>
	<path fill-rule="evenodd" clip-rule="evenodd" d="M1193.041,58.03c7.762,2.355,10.266,11.24,17.484,14.176
		c7.221,2.937,14.48,5.836,21.887,8.254c14.932,4.876,23.246,15.841,28.67,29.807c7.209,18.572,10.455,38.074,13.879,57.551
		c4.801,27.322,9.637,54.64,14.545,81.943c2.637,14.669,3.887,29.301,0.639,44.079c-0.406,1.849,1.012,4.104,1.611,6.164
		c0.352,1.205,1.34,2.646,0.965,3.518c-0.352,0.821-2.184,1.562-3.25,1.428c-5.619-0.704-7.283,1.187-7.059,7.115
		c0.422,11.23-0.561,11.848-11.533,10.017c-5.369-0.896-10.586-2.709-15.871-4.114c-2.811-0.747-3.547-2.564-2.904-5.29
		c0.496-2.099,0.469-4.343,1.129-6.374c1.268-3.894,0.496-6.107-3.812-7.336c-4.482-1.278-2.934-3.443,0.127-5.426
		c-11.627-15.495-10.006-34.704-13.844-52.439c-0.443,0.017-0.887,0.032-1.328,0.049c-0.4,7.726-0.801,15.451-1.256,24.243
		c4.07,3.443,5.002,9.372,5.254,15.714c0.242,6.117,1.291,12.207,1.404,18.319c0.037,1.963-1.295,4.525-2.836,5.822
		c-2.965,2.495-4.4,5.173-3.924,9.035c0.951,7.711-2.102,13.463-9.35,16.237c-9.1,3.484-18.404,6.435-27.643,9.555
		c-2.287,0.772-4.654,1.309-6.984,1.954c-12,0-24,0-36,0c-8.969-1.63-18.014-2.924-26.885-4.975
		c-10.834-2.506-21.535-5.6-32.264-8.551c-2.223-0.611-5.281-1.125-6.244-2.717c-1.736-2.869-3.336-6.703-2.848-9.795
		c0.521-3.302-0.947-4.801-2.438-6.816c-1.77-2.391-3.514-4.799-5.623-7.688c-1.379,0.771-2.91,1.617-4.43,2.482
		c-1.436,0.818-2.857,1.656-4.527,2.626c0.469,2.692,0.676,5.513,1.484,8.148c1.357,4.432-1.096,6.807-4.635,7.048
		c-6.891,0.471-13.846,0.051-20.771-0.107c-1.455-0.033-2.9-0.528-4.73-0.886c1.186-6.988,1.242-13.654-4.354-19.05
		c-0.523-0.504,0.158-2.882,0.906-3.954c1.791-2.566,3.957-4.873,5.854-7.146c-2.35-4.165-5.145-8.254-7.064-12.72
		c-2.959-6.886-1.855-13.196,3.809-18.614c1.166-1.115,1.672-3.412,1.682-5.169c0.113-18.32-0.609-36.673,0.221-54.956
		c1.146-25.218,4.73-50.057,18.037-72.351c0.254-0.426,0.537-0.869,0.646-1.342c4.309-18.435,17.143-29.492,32.924-37.943
		c14.361-7.691,28.697-15.439,43.242-22.769c2.953-1.488,6.775-1.482,10.227-1.709c12.125-0.797,24.271-1.268,36.383-2.187
		c2.193-0.167,4.27-1.869,6.398-2.862C1189.707,58.03,1191.373,58.03,1193.041,58.03z M1218.275,318.947
		c-1.012,0.775-1.934,1.721-3.047,2.3c-10.66,5.538-22.131,8.063-34.021,8.786c-16.666,1.014-32.67-3.079-48.811-6.348
		c-12.613-2.556-25.367-4.419-37.707-6.529c-1.352,2.55-2.031,3.835-3.396,6.41c5.283,2.164,10.07,5.271,15.203,6.027
		c22.02,3.243,44.084,6.464,66.244,8.387c17.807,1.546,35.225-1.257,50.76-11.228c6.334-4.066,6.594-5.024,3.459-12.525
		c-1.037,0.396-2.082,0.793-3.125,1.19c1.631-1.604,3.512-3.026,4.838-4.852c2.586-3.561,6.279-7.092,7.002-11.09
		c2.135-11.811-0.018-23.143-7-33.301c-0.914-1.331-1.562-3.386-1.285-4.915c5.027-27.789,3.07-55.737,2.434-83.692
		c-0.32-14.086,0.23-28.25,1.422-42.291c0.807-9.518,4.379-18.49,9.48-25.521c-2.102,9.813-6.002,20.41-6.33,31.117
		c-0.719,23.413,0.34,46.884,0.814,70.327c0.029,1.472,1.32,2.897,1.934,4.382c1.012,2.439,2.855,4.94,2.775,7.362
		c-0.713,21.527,3.439,42.382,8.287,63.147c0.32,1.379,1.582,3.102,2.834,3.608c7.697,3.114,15.443,6.142,23.326,8.737
		c3.578,1.179,7.506,1.301,11.281,1.902c-0.539-4.264-1.996-7.803-1.189-10.715c4.787-17.276,2.426-34.29-0.869-51.366
		c-4.625-23.981-8.842-48.047-13.822-71.953c-3.723-17.864-7.771-35.706-12.789-53.239c-4.52-15.795-15.098-26.496-30.973-32.067
		c-9.498-3.334-18.566-7.89-27.811-11.889c-6.586,17.273-16.723,24.953-33.709,24.975c-16.387,0.021-29.652-6.341-39.189-19.823
		c-10.16,4.796-20.148,9.32-29.951,14.216c-5.045,2.52-9.994,5.374-14.57,8.655c-8.355,5.99-15.344,13.205-18.838,23.272
		c-3.637,10.483-7.551,20.871-11.305,31.315c-0.951,2.65-2.189,5.3-2.545,8.047c-1.705,13.178-4.027,26.359-4.477,39.596
		c-0.627,18.459,0.279,36.967,0.336,55.455c0.006,1.895-0.768,4.351-2.082,5.597c-6.395,6.068-7.508,10.241-3.375,18.067
		c2.305,4.36,5.33,8.338,7.98,12.411c-1.807,1.335-3.932,2.405-5.377,4.067c-4.342,4.988-2.879,9.277,3.633,9.861
		c5.75,0.516,11.789,0.948,17.348-0.238c11.637-2.484,10.932-1.058,9.922-13.58c-0.09-1.105-0.312-2.2-0.473-3.301
		c0.377,0.218,0.752,0.436,1.127,0.653c1.947-2.333,5.584-4.681,5.562-6.995c-0.115-12.855,2.855-25.07,6.24-37.265
		c3.525-12.691,7.268-25.386,4.465-38.762c-2.818-13.454-1.779-26.83,0.271-40.227c2.559-16.712,6.396-33.396,1.18-50.407
		c1.551,2.589,2.775,5.225,3.551,7.987c2.947,10.501,2.061,21.127,0.637,31.722c-2.15,15.98-5.182,31.843-2.607,48.151
		c1.076,6.834,1.414,13.995,0.674,20.855c-1.029,9.546-3.566,18.918-5.133,28.418c-2.428,14.733-4.799,29.485-6.664,44.296
		c-0.369,2.936,0.707,7.253,2.762,9.048c4.438,3.874,8.787,8.22,15.561,8.78c6.756,0.56,13.387,2.52,20.104,3.674
		c16.217,2.787,32.371,6.192,48.701,7.98C1185.08,327.49,1202.146,326.02,1218.275,318.947z M1139.244,67.882
		c2.793,11.521,16.031,17.765,31.102,15.058c10.494-1.886,17.34-9.626,16.297-18.746
		C1170.727,63.616,1154.893,64.16,1139.244,67.882z M1255.631,316.091c7.592,1.576,14.373,2.983,21.133,4.386
		c0.703-6.175,1.26-11.079,1.799-15.8c-4.723-2.123-9.184-4.265-13.758-6.124c-2.092-0.85-4.756-1.854-5.623,1.617
		C1257.912,305.259,1256.885,310.41,1255.631,316.091z M1133.021,70.382c-0.602,0.521-1.205,1.04-1.809,1.56
		c1.27,2.271,2.146,4.912,3.877,6.749c6.74,7.152,15.377,11.062,24.947,12.227c4.934,0.6,10.207-0.012,15.092-1.115
		c3.943-0.892,6.572-4.13,7.797-8.098c-5.156,1.715-9.74,3.717-14.533,4.733c-10.023,2.125-18.58-0.998-25.871-8.161
		C1139.596,75.401,1136.203,73,1133.021,70.382z M1042.527,318.276c6.791,2.599,17.398,2.509,22.262,0.011
		c-0.715-3.487-1.432-6.994-2.242-10.954c-2.938,0.29-5.861,0.542-8.775,0.878c-3.1,0.357-6.189,0.796-9.381,1.212
		C1043.783,312.309,1043.182,315.166,1042.527,318.276z"/>
	<path fill-rule="evenodd" clip-rule="evenodd" d="M1868.041,342.03c-8.264-1.675-16.529-3.34-24.789-5.036
		c-0.947-0.195-1.859-0.564-3.24-0.993c2.268-8.957,4.471-17.765,6.73-26.558c4.848-18.876,9.428-37.875,9.781-57.422
		c0.232-12.938-0.982-25.931-2.062-38.855c-1.48-17.738-4.082-35.408-1.541-53.263c1.898-13.328,7.463-24.666,17.312-33.987
		c1.852-1.752,3.531-4.678,3.625-7.126c0.424-11.124,0.258-22.271,0.291-33.41c0.016-4.756,0.002-9.512,0.002-14.268
		c0.699-0.206,1.396-0.412,2.096-0.617c1.266,2.228,3.529,4.417,3.617,6.69c0.332,8.587,0.525,17.257-0.314,25.788
		c-0.834,8.474,1.562,14.941,8.176,20.16c13.635,10.763,28.375,19.712,45.721,22.26c38.293,5.626,62.477-14.33,66.436-49.381
		c1.359-12.029,0.037-24.362-0.059-36.563c2.809,0.523,5.105,3.017,5.154,6.786c0.133,10.258,0.588,20.588-0.393,30.764
		c-1.266,13.101,1.361,24.737,9.184,35.285c3.371,4.544,6.615,9.186,9.781,13.875c11.025,16.331,13.814,33.819,7.818,52.777
		c-3.904,12.337-8.568,24.653-7.643,37.917c0.764,10.941,1.809,21.891,3.395,32.739c2.688,18.393,4.184,37.05,10.82,54.672
		c0.748,1.984,1.416,3.998,2.199,6.22c-9.059,0.812-17.783,1.431-26.469,2.403c-19.174,2.145-38.33,4.43-57.484,6.742
		c-5.398,0.651-10.764,1.592-16.145,2.4C1916.041,342.03,1892.041,342.03,1868.041,342.03z M1849.295,329.158
		c61.104,16.498,120.285,3.83,178.455-7.146c-2.869-22.321-5.668-44.096-8.465-65.847c-3.826-0.82-5.035,7.645-10.025,2.59
		c1.146-3.959,2.342-7.92,3.441-11.907c6.145-22.31,11.779-44.694,11.6-68.1c-0.1-12.981-1.912-25.539-8.205-37.096
		c-3.928-7.211-8.979-13.456-15.109-17.234c-6.102,5.413-11.09,11.19-17.273,15.061c-15.705,9.832-33.309,11.81-51.439,10.049
		c-13.977-1.357-26.508-5.772-36.281-16.638c-2.934-3.261-7.023-5.532-10.746-8.012c-2.887-1.923-5.221-1.372-7.641,1.556
		c-12.434,15.045-18.068,32.771-18.279,51.713c-0.268,23.93,0.9,47.898,2.146,71.814
		C1862.879,276.974,1862.336,303.543,1849.295,329.158z"/>
	<path fill-rule="evenodd" clip-rule="evenodd" d="M1748.041,58.03c0.975,17.275,1.771,34.564,2.99,51.822
		c0.762,10.809,4.617,20.434,13.15,27.624c8.705,7.335,9.383,16.502,6.621,26.684c-5.477,20.197-10.826,40.429-16.24,60.644
		c-1.367,5.1-1.004,9.699,1.293,14.8c8.037,17.836,10.4,37.076,12.1,56.318c1.303,14.731,1.811,29.534,2.686,44.552
		c-1.775,0.23-2.883,0.515-3.986,0.496c-44.295-0.737-88.592-1.535-132.889-2.198c-3.346-0.05-4.438-1.279-5.125-4.45
		c-3.59-16.585-1.207-32.794,2.91-48.838c5.24-20.411,9.803-40.888,6.365-62.101c-2.469-15.247-5.525-30.4-8.391-45.582
		c-1.57-8.326-3.359-16.612-4.855-24.952c-0.219-1.215,0.219-3.125,1.082-3.87c13.035-11.255,17.414-26.53,19.164-42.644
		c1.398-12.876,1.475-25.896,2.105-38.853c0.096-1.972,0.014-3.952,0.014-6.072c7.133,0.582,13.838,1.128,19.617,1.599
		c0.836,11.45,1.189,22.209,2.521,32.846c1.311,10.464,4.553,20.497,10.783,29.215c6.168,8.633,14.182,13.401,25.277,11.025
		c8.199-1.756,13.262-7.335,15.643-14.676c2.746-8.467,4.744-17.298,5.91-26.124c1.391-10.538,1.883-21.232,2.09-31.872
		c0.082-4.17,3.057-4.001,5.164-5.393C1738.707,58.03,1743.373,58.03,1748.041,58.03z M1651.982,64.148
		c-0.352,6.566-0.529,12.045-0.963,17.502c-0.951,11.935-1.527,23.931-3.211,35.767c-1.541,10.829-5.07,21.304-14.305,28.205
		c-3.557,2.657-3.836,5.17-3.135,8.816c3.801,19.759,7.672,39.507,11.225,59.311c3.477,19.377,3.969,38.59-2.766,57.621
		c-7.396,20.901-3.934,42.742-5.059,64.139c43.592,0,86.648,0,129.111,0c0-12.684,0.875-25.371-0.232-37.883
		c-1.254-14.166-4.084-28.213-6.688-42.227c-0.682-3.671-3.062-7.026-5.016-11.296c-3.766,8.607-3.766,8.607-7.555,7.438
		c8.197-34.744,16.391-69.474,24.588-104.215c-6.91-3.73-12.393-8.573-14.742-15.58c-2.676-7.982-4.85-16.249-6.107-24.563
		c-2.113-13.965-3.295-28.07-4.965-42.105c-0.227-1.906,0.34-4.996-3.223-4.273c-2.633,0.534-4.377,1.638-4.512,5.251
		c-0.402,10.792-1.01,21.628-2.49,32.314c-1.676,12.095-4.965,23.86-13.062,33.525c-9.57,11.421-24.145,12.472-35.289,2.659
		c-11.631-10.241-17.957-23.482-20.371-38.476c-1.574-9.779-1.914-19.757-2.828-29.892
		C1658.162,65.647,1655.504,65.001,1651.982,64.148z"/>
	<path fill-rule="evenodd" clip-rule="evenodd" d="M566.04,58.03c3.526,2.04,6.892,4.456,10.609,6.049
		c9.929,4.252,20.185,7.775,29.956,12.348c5.022,2.35,9.736,5.844,13.784,9.672c5.805,5.49,6.817,12.885,2.923,19.579
		c-3.956,6.8-9.359,12.784-14.362,18.937c-2.086,2.565-4.544,4.962-7.23,6.878c-7.394,5.273-9.708,12.652-9.617,21.234
		c0.094,8.919-2.375,16.764-7.775,24.191c-2.667,3.669-3.796,9.339-3.63,14.032c0.757,21.451,1.369,42.974,3.764,64.275
		c1.338,11.898,6.054,23.418,9.255,35.105c1.842,6.727,3.519,13.506,5.623,20.149c1.042,3.287-0.095,4.722-2.861,6.188
		c-22.709,12.04-46.724,19.983-72.203,23.498c-3.105,0.428-6.158,1.233-9.235,1.864c-10.667,0-21.333,0-32,0
		c-9.063-1.99-18.247-3.56-27.154-6.1c-7.769-2.215-15.227-5.522-23.058-8.436c2.918-17.991,6.182-35.146,8.375-52.436
		c2.406-18.962,4.066-38.03,5.573-57.09c0.733-9.277,0.91-18.676,0.305-27.952c-0.332-5.098-1.989-10.518-4.503-14.973
		c-4.14-7.337-6.465-14.879-6.585-23.214c-0.118-8.163-3.393-15.216-8.087-21.621c-5.509-7.518-11.532-14.665-16.895-22.281
		c-6.679-9.483-6.823-12.518,1.93-19.966c7.24-6.161,15.685-11.09,24.095-15.642c8.592-4.65,17.792-8.176,27.273-12.439
		c9.587,10.034,22.165,15.694,36.113,18.507c13.214,2.663,26.43,2.943,39.483-1.044c9.363-2.86,17.181-7.907,22.569-16.316
		c0.703-1.097,1.703-2.003,2.565-2.998C565.373,58.03,565.706,58.03,566.04,58.03z M436.532,123.007
		c0.22,0.308,0.44,0.615,0.661,0.923c0.583,4.078,0.555,8.374,1.915,12.174c1.426,3.984,3.552,7.405,0.384,11.529
		c-0.683,0.889-0.281,2.946,0.152,4.295c1.521,4.737,3.239,9.412,4.947,14.088c2.162,5.918,5.266,11.646,6.423,17.747
		c3.891,20.516,2.626,41.154-0.525,61.636c-3.741,24.315-7.878,48.572-12.126,72.806c-0.895,5.105,0.662,7.258,5.434,9.032
		c28.963,10.773,58.683,12.642,89.003,8.274c20.769-2.99,40.496-9.105,58.759-19.664c2.893-1.673,4.044-3.375,2.962-6.762
		c-1.515-4.742-2.584-9.628-3.826-14.456c-3.593-13.975-8.841-27.771-10.381-41.968c-2.418-22.296-2.428-44.86-3.189-67.319
		c-0.091-2.698,0.91-5.834,2.402-8.114c5.805-8.866,9.008-18.45,9.521-29.012c0.193-3.982,0.519-7.806-5.098-8.129
		c-0.461-0.026-0.859-1.145-1.364-1.867c4.967-2.624,9.874-4.673,14.185-7.6c11.769-7.989,18.127-20.145,23.816-32.637
		c0.585-1.285-0.125-3.579-0.934-5.01c-4.178-7.393-10.767-12.262-18.26-15.72c-11.441-5.28-23.098-10.093-35-15.25
		c-4.129,11.739-12.837,18.714-24.175,22.757c-22.81,8.137-63.668,3.719-80.663-20.212c-7.328,2.787-14.632,5.525-21.905,8.344
		c-10.388,4.024-19.634,9.803-27.184,18.089c-3.229,3.543-4.278,7.213-1.104,11.583c7.277,10.018,14.342,20.188,21.792,30.72
		C434.256,129.928,435.394,126.467,436.532,123.007z M524.356,84.305c11.066,2.172,30.272-6.344,34.783-15.805
		C549.068,78.577,536.787,81.61,524.356,84.305z M496.656,81.684c-0.08,0.612-0.161,1.225-0.241,1.837
		c5.013,0.738,10.026,1.477,15.04,2.216c0.086-0.639,0.172-1.277,0.258-1.916C506.694,83.109,501.675,82.397,496.656,81.684z
		 M474.811,70.115c-0.362,0.549-0.723,1.099-1.084,1.647c4.242,2.892,8.485,5.783,12.727,8.675c0.283-0.415,0.566-0.83,0.85-1.245
		C483.139,76.167,478.975,73.14,474.811,70.115z"/>
</g>
</svg>
